<svg width="287" height="162" viewBox="0 0 287 162" fill="none" xmlns="http://www.w3.org/2000/svg">
<ellipse cx="162.314" cy="150.899" rx="10.943" ry="10.943" transform="rotate(-89.1671 162.314 150.899)" fill="#6B30FA"/>
<ellipse cx="124.51" cy="94.1942" rx="10.943" ry="10.943" transform="rotate(-89.1671 124.51 94.1942)" fill="#06686B"/>
<ellipse cx="275.491" cy="39.8542" rx="10.943" ry="10.943" transform="rotate(-89.1671 275.491 39.8542)" fill="#06686B"/>
<path d="M11.2455 30.8101C16.7363 30.89 21.1228 35.4059 21.0429 40.8967C20.9631 46.3875 16.4472 50.7739 10.9564 50.6941C5.46561 50.6143 1.07915 46.0984 1.15897 40.6076C1.2388 35.1168 5.75469 30.7303 11.2455 30.8101Z" stroke="#06686B" stroke-width="2"/>
<ellipse cx="11.101" cy="94.1943" rx="10.943" ry="10.943" transform="rotate(-89.1671 11.101 94.1943)" fill="#F0CF4A"/>
<ellipse cx="86.7074" cy="150.899" rx="10.943" ry="10.943" transform="rotate(-89.1671 86.7074 150.899)" fill="#F0CF4A"/>
<ellipse cx="48.2698" cy="12.5035" rx="10.943" ry="10.943" transform="rotate(-89.1671 48.2698 12.5035)" fill="#F0CF4A"/>
<ellipse cx="11.101" cy="67.3341" rx="10.943" ry="10.943" transform="rotate(-89.1671 11.101 67.3341)" fill="#FE4F4C"/>
<ellipse cx="238.187" cy="39.1529" rx="10.943" ry="10.943" transform="rotate(-89.1671 238.187 39.1529)" fill="#FE4F4C"/>
<ellipse cx="86.7074" cy="94.1942" rx="10.943" ry="10.943" transform="rotate(-89.1671 86.7074 94.1942)" fill="#FE77D6"/>
<ellipse cx="237.62" cy="11.1009" rx="10.943" ry="10.943" transform="rotate(-89.1671 237.62 11.1009)" fill="#FE77D6"/>
<ellipse cx="125.444" cy="39.9525" rx="10.943" ry="10.943" transform="rotate(-89.1671 125.444 39.9525)" fill="#FE77D6"/>
<ellipse cx="11.101" cy="150.899" rx="10.943" ry="10.943" transform="rotate(-89.1671 11.101 150.899)" fill="#FE77D6"/>
<rect x="113.41" y="56.2331" width="59.6893" height="21.8861" rx="10.943" fill="#F0CF4A"/>
<rect x="58.6893" y="84.0933" width="49.7307" height="19.8861" rx="9.94303" transform="rotate(90 58.6893 84.0933)" stroke="#FE4F4C" stroke-width="2"/>
<rect x="209.535" y="1" width="49.7307" height="19.8861" rx="9.94303" transform="rotate(90 209.535 1)" stroke="#F0CF4A" stroke-width="2"/>
<rect x="285.509" y="57.2331" width="47.7411" height="19.8861" rx="9.94303" transform="rotate(90 285.509 57.2331)" stroke="#FE77D6" stroke-width="2"/>
<rect x="189.016" y="139.798" width="59.6893" height="21.8861" rx="10.943" fill="#06686B"/>
<rect x="76.7403" y="2.4026" width="57.6893" height="19.8861" rx="9.94303" stroke="#06686B" stroke-width="2"/>
<circle cx="275.566" cy="150.741" r="10.943" fill="#FE4F4C"/>
<circle cx="237.762" cy="95.0312" r="10.943" fill="#F0CF4A"/>
<circle cx="199.959" cy="67.1762" r="10.943" fill="#6B30FA"/>
<circle cx="86.9049" cy="40.5942" r="10.943" fill="#6B30FA"/>
<circle cx="162.156" cy="122.886" r="10.943" fill="#FE4F4C"/>
<circle cx="199.959" cy="95.0312" r="9.94303" stroke="#FE4F4C" stroke-width="2"/>
<path d="M49.0487 56.3974C54.5395 56.4772 58.926 60.9931 58.8462 66.4839C58.7663 71.9747 54.2504 76.3611 48.7596 76.2813C43.2688 76.2015 38.8824 71.6856 38.9622 66.1948C39.042 60.704 43.5579 56.3175 49.0487 56.3974Z" stroke="#6B30FA" stroke-width="2"/>
</svg>
